<svg width="28" height="43" viewBox="0 0 28 43" fill="none" xmlns="http://www.w3.org/2000/svg">
<rect width="28" height="43" fill="#E5E5E5"/>
<g clip-path="url(#clip0_0_1)">
<rect width="1600" height="5738" transform="translate(-652 -997)" fill="white"/>
<rect x="-111" y="-35" width="250" height="200" rx="7" fill="white"/>
<rect x="-110.5" y="-34.5" width="249" height="199" rx="6.5" stroke="black" stroke-opacity="0.03"/>
<path d="M13.8877 18.6239L0.3125 21.0852L5.4074 41.071C5.55508 41.6124 6.04734 42.0063 6.61344 42.0063H21.3813C21.9473 42.0063 22.4396 41.6124 22.5873 41.071L27.6824 21.0852L13.8877 18.6239ZM11.5361 14.9319C12.2163 14.9319 12.7667 14.3815 12.7667 13.7013V1.23065C12.7667 0.55043 12.2163 0 11.5361 0C10.8558 0 10.3054 0.55043 10.3054 1.23065V13.7013C10.3054 14.3815 10.8558 14.9319 11.5361 14.9319ZM16.4587 14.9319C17.1389 14.9319 17.6893 14.3815 17.6893 13.7013V1.23065C17.6893 0.55043 17.1389 0 16.4587 0C15.7784 0 15.228 0.55043 15.228 1.23065V13.7013C15.228 14.3815 15.7784 14.9319 16.4587 14.9319Z" fill="url(#paint0_linear_0_1)"/>
<path d="M29.3092 15.055C28.7185 14.7597 27.98 15.0057 27.6603 15.621L26.1587 18.6239L22.4176 13.012C22.1715 12.6675 21.8022 12.4706 21.3839 12.4706H6.61606C6.19764 12.4706 5.82844 12.6675 5.58231 13.012L1.84113 18.6239L0.339731 15.621C0.0197616 15.0057 -0.71863 14.7597 -1.30926 15.055C-1.92459 15.375 -2.1708 16.1134 -1.87544 16.704L0.315118 21.0852H27.685L29.8753 16.704C30.1709 16.1133 29.9245 15.375 29.3092 15.055ZM14 27.2385C11.9642 27.2385 10.308 28.8946 10.308 30.9304C10.308 32.9663 11.9642 34.6224 14 34.6224C16.0358 34.6224 17.6919 32.9663 17.6919 30.9304C17.6919 28.8946 16.0358 27.2385 14 27.2385Z" fill="url(#paint1_linear_0_1)"/>
</g>
<defs>
<linearGradient id="paint0_linear_0_1" x1="13.9974" y1="42.0063" x2="13.9974" y2="0" gradientUnits="userSpaceOnUse">
<stop stop-color="#FD3A84"/>
<stop offset="1" stop-color="#FFA68D"/>
</linearGradient>
<linearGradient id="paint1_linear_0_1" x1="14" y1="34.6224" x2="14" y2="12.4706" gradientUnits="userSpaceOnUse">
<stop stop-color="#FFC2CC"/>
<stop offset="1" stop-color="#FFF2F4"/>
</linearGradient>
<clipPath id="clip0_0_1">
<rect width="1600" height="5738" fill="white" transform="translate(-652 -997)"/>
</clipPath>
</defs>
</svg>
